<?xml version="1.0" encoding="UTF-8" standalone="no"?>
<svg
   xmlns:dc="http://purl.org/dc/elements/1.1/"
   xmlns:cc="http://creativecommons.org/ns#"
   xmlns:rdf="http://www.w3.org/1999/02/22-rdf-syntax-ns#"
   xmlns:svg="http://www.w3.org/2000/svg"
   xmlns="http://www.w3.org/2000/svg"
   xmlns:sodipodi="http://sodipodi.sourceforge.net/DTD/sodipodi-0.dtd"
   xmlns:inkscape="http://www.inkscape.org/namespaces/inkscape"
   version="1.1"
   width="9.5in"
   height="6.5in"
   viewBox=" 0 0 855 585"
   id="svg2"
   inkscape:version="0.48.5 r10040"
   sodipodi:docname="box.svg">
  <metadata
     id="metadata32">
    <rdf:RDF>
      <cc:Work
         rdf:about="">
        <dc:format>image/svg+xml</dc:format>
        <dc:type
           rdf:resource="http://purl.org/dc/dcmitype/StillImage" />
        <dc:title />
      </cc:Work>
    </rdf:RDF>
  </metadata>
  <defs
     id="defs30" />
  <sodipodi:namedview
     pagecolor="#ffffff"
     bordercolor="#666666"
     borderopacity="1"
     objecttolerance="10"
     gridtolerance="10"
     guidetolerance="10"
     inkscape:pageopacity="0"
     inkscape:pageshadow="2"
     inkscape:window-width="1257"
     inkscape:window-height="755"
     id="namedview28"
     showgrid="false"
     inkscape:zoom="0.55079897"
     inkscape:cx="403.63607"
     inkscape:cy="292.5"
     inkscape:window-x="0"
     inkscape:window-y="0"
     inkscape:window-maximized="0"
     inkscape:current-layer="svg2" />
  <!-- Front-->
  <g
     transform="matrix(1.1343355,0,0,1.1343355,22.560451,22.560451)"
     id="g4"
     style="fill:none;stroke:#000000;stroke-opacity:1">
    <polygon
       style="fill:none;stroke:#000000;stroke-width:0.89999998;stroke-opacity:1"
       points="33.75,10.62 67.5,10.62 67.5,0 94.5,0 94.5,10.62 121.5,10.62 121.5,0 148.5,0 148.5,10.62 175.5,10.62 175.5,0 202.5,0 202.5,10.62 236.25,10.62 236.25,0 270,0 270,33.75 259.38,33.75 259.38,67.5 270,67.5 270,94.5 259.38,94.5 259.38,121.5 270,121.5 270,148.5 259.38,148.5 259.38,175.5 270,175.5 270,202.5 259.38,202.5 259.38,236.25 270,236.25 270,270 236.25,270 236.25,259.38 202.5,259.38 202.5,270 175.5,270 175.5,259.38 148.5,259.38 148.5,270 121.5,270 121.5,259.38 94.5,259.38 94.5,270 67.5,270 67.5,259.38 33.75,259.38 33.75,270 0,270 0,236.25 10.62,236.25 10.62,202.5 0,202.5 0,175.5 10.62,175.5 10.62,148.5 0,148.5 0,121.5 10.62,121.5 10.62,94.5 0,94.5 0,67.5 10.62,67.5 10.62,33.75 0,33.75 0,0 33.75,0 "
       id="polygon6" />
  </g>
  <!-- Back-->
  <g
     transform="matrix(1.1343355,0,0,1.1343355,328.83103,22.560451)"
     id="g8"
     style="fill:none;stroke:#000000;stroke-opacity:1">
    <polygon
       style="fill:none;stroke:#000000;stroke-width:0.89999998;stroke-opacity:1"
       points="33.75,10.62 67.5,10.62 67.5,0 94.5,0 94.5,10.62 121.5,10.62 121.5,0 148.5,0 148.5,10.62 175.5,10.62 175.5,0 202.5,0 202.5,10.62 236.25,10.62 236.25,0 270,0 270,33.75 259.38,33.75 259.38,67.5 270,67.5 270,94.5 259.38,94.5 259.38,121.5 270,121.5 270,148.5 259.38,148.5 259.38,175.5 270,175.5 270,202.5 259.38,202.5 259.38,236.25 270,236.25 270,270 236.25,270 236.25,259.38 202.5,259.38 202.5,270 175.5,270 175.5,259.38 148.5,259.38 148.5,270 121.5,270 121.5,259.38 94.5,259.38 94.5,270 67.5,270 67.5,259.38 33.75,259.38 33.75,270 0,270 0,236.25 10.62,236.25 10.62,202.5 0,202.5 0,175.5 10.62,175.5 10.62,148.5 0,148.5 0,121.5 10.62,121.5 10.62,94.5 0,94.5 0,67.5 10.62,67.5 10.62,33.75 0,33.75 0,0 33.75,0 "
       id="polygon10" />
  </g>
  <!-- Left-->
  <g
     transform="matrix(1.1343355,0,0,1.1343355,635.10162,22.560451)"
     id="g12"
     style="fill:none;stroke:#000000;stroke-opacity:1">
    <polygon
       style="fill:none;stroke:#000000;stroke-width:0.89999998;stroke-opacity:1"
       points="33.75,10.62 67.5,10.62 67.5,0 94.5,0 94.5,10.62 121.5,10.62 121.5,0 148.5,0 148.5,10.62 175.5,10.62 175.5,0 202.5,0 202.5,10.62 236.25,10.62 236.25,0 259.38,0 259.38,33.75 270,33.75 270,67.5 259.38,67.5 259.38,94.5 270,94.5 270,121.5 259.38,121.5 259.38,148.5 270,148.5 270,175.5 259.38,175.5 259.38,202.5 270,202.5 270,236.25 259.38,236.25 259.38,270 236.25,270 236.25,259.38 202.5,259.38 202.5,270 175.5,270 175.5,259.38 148.5,259.38 148.5,270 121.5,270 121.5,259.38 94.5,259.38 94.5,270 67.5,270 67.5,259.38 33.75,259.38 33.75,270 10.62,270 10.62,236.25 0,236.25 0,202.5 10.62,202.5 10.62,175.5 0,175.5 0,148.5 10.62,148.5 10.62,121.5 0,121.5 0,94.5 10.62,94.5 10.62,67.5 0,67.5 0,33.75 10.62,33.75 10.62,0 33.75,0 "
       id="polygon14" />
  </g>
  <!-- Right-->
  <g
     transform="matrix(1.1343355,0,0,1.1343355,635.10162,328.83103)"
     id="g16"
     style="fill:none;stroke:#000000;stroke-opacity:1">
    <polygon
       style="fill:none;stroke:#000000;stroke-width:0.89999998;stroke-opacity:1"
       points="33.75,10.62 67.5,10.62 67.5,0 94.5,0 94.5,10.62 121.5,10.62 121.5,0 148.5,0 148.5,10.62 175.5,10.62 175.5,0 202.5,0 202.5,10.62 236.25,10.62 236.25,0 259.38,0 259.38,33.75 270,33.75 270,67.5 259.38,67.5 259.38,94.5 270,94.5 270,121.5 259.38,121.5 259.38,148.5 270,148.5 270,175.5 259.38,175.5 259.38,202.5 270,202.5 270,236.25 259.38,236.25 259.38,270 236.25,270 236.25,259.38 202.5,259.38 202.5,270 175.5,270 175.5,259.38 148.5,259.38 148.5,270 121.5,270 121.5,259.38 94.5,259.38 94.5,270 67.5,270 67.5,259.38 33.75,259.38 33.75,270 10.62,270 10.62,236.25 0,236.25 0,202.5 10.62,202.5 10.62,175.5 0,175.5 0,148.5 10.62,148.5 10.62,121.5 0,121.5 0,94.5 10.62,94.5 10.62,67.5 0,67.5 0,33.75 10.62,33.75 10.62,0 33.75,0 "
       id="polygon18" />
  </g>
  <!-- Top-->
  <g
     transform="matrix(1.1343355,0,0,1.1343355,22.560451,328.83103)"
     id="g20"
     style="fill:none;stroke:#000000;stroke-opacity:1">
    <polygon
       style="fill:none;stroke:#000000;stroke-width:0.89999998;stroke-opacity:1"
       points="33.75,0 67.5,0 67.5,10.62 94.5,10.62 94.5,0 121.5,0 121.5,10.62 148.5,10.62 148.5,0 175.5,0 175.5,10.62 202.5,10.62 202.5,0 236.25,0 236.25,10.62 259.38,10.62 259.38,33.75 270,33.75 270,67.5 259.38,67.5 259.38,94.5 270,94.5 270,121.5 259.38,121.5 259.38,148.5 270,148.5 270,175.5 259.38,175.5 259.38,202.5 270,202.5 270,236.25 259.38,236.25 259.38,259.38 236.25,259.38 236.25,270 202.5,270 202.5,259.38 175.5,259.38 175.5,270 148.5,270 148.5,259.38 121.5,259.38 121.5,270 94.5,270 94.5,259.38 67.5,259.38 67.5,270 33.75,270 33.75,259.38 10.62,259.38 10.62,236.25 0,236.25 0,202.5 10.62,202.5 10.62,175.5 0,175.5 0,148.5 10.62,148.5 10.62,121.5 0,121.5 0,94.5 10.62,94.5 10.62,67.5 0,67.5 0,33.75 10.62,33.75 10.62,10.62 33.75,10.62 "
       id="polygon22" />
  </g>
  <!-- Bottom-->
  <g
     transform="matrix(1.1343355,0,0,1.1343355,328.83103,328.83103)"
     id="g24"
     style="fill:none;stroke:#000000;stroke-opacity:1">
    <polygon
       style="fill:none;stroke:#000000;stroke-width:0.89999998;stroke-opacity:1"
       points="33.75,0 67.5,0 67.5,10.62 94.5,10.62 94.5,0 121.5,0 121.5,10.62 148.5,10.62 148.5,0 175.5,0 175.5,10.62 202.5,10.62 202.5,0 236.25,0 236.25,10.62 259.38,10.62 259.38,33.75 270,33.75 270,67.5 259.38,67.5 259.38,94.5 270,94.5 270,121.5 259.38,121.5 259.38,148.5 270,148.5 270,175.5 259.38,175.5 259.38,202.5 270,202.5 270,236.25 259.38,236.25 259.38,259.38 236.25,259.38 236.25,270 202.5,270 202.5,259.38 175.5,259.38 175.5,270 148.5,270 148.5,259.38 121.5,259.38 121.5,270 94.5,270 94.5,259.38 67.5,259.38 67.5,270 33.75,270 33.75,259.38 10.62,259.38 10.62,236.25 0,236.25 0,202.5 10.62,202.5 10.62,175.5 0,175.5 0,148.5 10.62,148.5 10.62,121.5 0,121.5 0,94.5 10.62,94.5 10.62,67.5 0,67.5 0,33.75 10.62,33.75 10.62,10.62 33.75,10.62 "
       id="polygon26" />
  </g>
  <rect
     style="fill:none;stroke:#000000;stroke-width:1.13433552;stroke-miterlimit:4;stroke-opacity:1;stroke-dasharray:none"
     id="rect3889"
     width="61.783096"
     height="80.318031"
     x="80.872314"
     y="558.05121" />
</svg>
