<?xml version="1.0" encoding="UTF-8" standalone="no"?>
<svg
   xmlns:dc="http://purl.org/dc/elements/1.1/"
   xmlns:cc="http://creativecommons.org/ns#"
   xmlns:rdf="http://www.w3.org/1999/02/22-rdf-syntax-ns#"
   xmlns:svg="http://www.w3.org/2000/svg"
   xmlns="http://www.w3.org/2000/svg"
   xmlns:sodipodi="http://sodipodi.sourceforge.net/DTD/sodipodi-0.dtd"
   xmlns:inkscape="http://www.inkscape.org/namespaces/inkscape"
   version="1.1"
   width="9.5in"
   height="6.5in"
   viewBox=" 0 0 855 585"
   id="svg2"
   inkscape:version="0.48.5 r10040"
   sodipodi:docname="box_demo.svg">
  <metadata
     id="metadata32">
    <rdf:RDF>
      <cc:Work
         rdf:about="">
        <dc:format>image/svg+xml</dc:format>
        <dc:type
           rdf:resource="http://purl.org/dc/dcmitype/StillImage" />
        <dc:title></dc:title>
      </cc:Work>
    </rdf:RDF>
  </metadata>
  <defs
     id="defs30" />
  <sodipodi:namedview
     pagecolor="#ffffff"
     bordercolor="#666666"
     borderopacity="1"
     objecttolerance="10"
     gridtolerance="10"
     guidetolerance="10"
     inkscape:pageopacity="0"
     inkscape:pageshadow="2"
     inkscape:window-width="1257"
     inkscape:window-height="760"
     id="namedview28"
     showgrid="false"
     inkscape:zoom="0.55079897"
     inkscape:cx="403.63607"
     inkscape:cy="292.5"
     inkscape:window-x="0"
     inkscape:window-y="0"
     inkscape:window-maximized="0"
     inkscape:current-layer="svg2" />
  <!-- Front-->
  <g
     transform="translate(22.5, 22.5) "
     id="g4"
     style="fill:none;stroke:#000000;stroke-opacity:1">
    <polygon
       style="stroke:#000000;fill:none;stroke-width:0.90000000000000002;stroke-opacity:1"
       points="0, 0 33.75, 0 33.75, 10.62 67.5, 10.62 67.5, 0 94.5, 0 94.5, 10.62 121.5, 10.62 121.5, 0 148.5, 0 148.5, 10.62 175.5, 10.62 175.5, 0 202.5, 0 202.5, 10.62 236.25, 10.62 236.25, 0 270, 0 270, 33.75 259.38, 33.75 259.38, 67.5 270, 67.5 270, 94.5 259.38, 94.5 259.38, 121.5 270, 121.5 270, 148.5 259.38, 148.5 259.38, 175.5 270, 175.5 270, 202.5 259.38, 202.5 259.38, 236.25 270, 236.25 270, 270 236.25, 270 236.25, 259.38 202.5, 259.38 202.5, 270 175.5, 270 175.5, 259.38 148.5, 259.38 148.5, 270 121.5, 270 121.5, 259.38 94.5, 259.38 94.5, 270 67.5, 270 67.5, 259.38 33.75, 259.38 33.75, 270 0, 270 0, 236.25 10.62, 236.25 10.62, 202.5 0, 202.5 0, 175.5 10.62, 175.5 10.62, 148.5 0, 148.5 0, 121.5 10.62, 121.5 10.62, 94.5 0, 94.5 0, 67.5 10.62, 67.5 10.62, 33.75 0, 33.75 "
       id="polygon6" />
  </g>
  <!-- Back-->
  <g
     transform="translate(292.5, 22.5) "
     id="g8"
     style="fill:none;stroke:#000000;stroke-opacity:1">
    <polygon
       style="stroke:#000000;fill:none;stroke-width:0.90000000000000002;stroke-opacity:1"
       points="0, 0 33.75, 0 33.75, 10.62 67.5, 10.62 67.5, 0 94.5, 0 94.5, 10.62 121.5, 10.62 121.5, 0 148.5, 0 148.5, 10.62 175.5, 10.62 175.5, 0 202.5, 0 202.5, 10.62 236.25, 10.62 236.25, 0 270, 0 270, 33.75 259.38, 33.75 259.38, 67.5 270, 67.5 270, 94.5 259.38, 94.5 259.38, 121.5 270, 121.5 270, 148.5 259.38, 148.5 259.38, 175.5 270, 175.5 270, 202.5 259.38, 202.5 259.38, 236.25 270, 236.25 270, 270 236.25, 270 236.25, 259.38 202.5, 259.38 202.5, 270 175.5, 270 175.5, 259.38 148.5, 259.38 148.5, 270 121.5, 270 121.5, 259.38 94.5, 259.38 94.5, 270 67.5, 270 67.5, 259.38 33.75, 259.38 33.75, 270 0, 270 0, 236.25 10.62, 236.25 10.62, 202.5 0, 202.5 0, 175.5 10.62, 175.5 10.62, 148.5 0, 148.5 0, 121.5 10.62, 121.5 10.62, 94.5 0, 94.5 0, 67.5 10.62, 67.5 10.62, 33.75 0, 33.75 "
       id="polygon10" />
  </g>
  <!-- Left-->
  <g
     transform="translate(562.5, 22.5) "
     id="g12"
     style="fill:none;stroke:#000000;stroke-opacity:1">
    <polygon
       style="stroke:#000000;fill:none;stroke-width:0.90000000000000002;stroke-opacity:1"
       points="10.62, 0 33.75, 0 33.75, 10.62 67.5, 10.62 67.5, 0 94.5, 0 94.5, 10.62 121.5, 10.62 121.5, 0 148.5, 0 148.5, 10.62 175.5, 10.62 175.5, 0 202.5, 0 202.5, 10.62 236.25, 10.62 236.25, 0 259.38, 0 259.38, 33.75 270, 33.75 270, 67.5 259.38, 67.5 259.38, 94.5 270, 94.5 270, 121.5 259.38, 121.5 259.38, 148.5 270, 148.5 270, 175.5 259.38, 175.5 259.38, 202.5 270, 202.5 270, 236.25 259.38, 236.25 259.38, 270 236.25, 270 236.25, 259.38 202.5, 259.38 202.5, 270 175.5, 270 175.5, 259.38 148.5, 259.38 148.5, 270 121.5, 270 121.5, 259.38 94.5, 259.38 94.5, 270 67.5, 270 67.5, 259.38 33.75, 259.38 33.75, 270 10.62, 270 10.62, 236.25 0, 236.25 0, 202.5 10.62, 202.5 10.62, 175.5 0, 175.5 0, 148.5 10.62, 148.5 10.62, 121.5 0, 121.5 0, 94.5 10.62, 94.5 10.62, 67.5 0, 67.5 0, 33.75 10.62, 33.75 "
       id="polygon14" />
  </g>
  <!-- Right-->
  <g
     transform="translate(562.5, 292.5) "
     id="g16"
     style="fill:none;stroke:#000000;stroke-opacity:1">
    <polygon
       style="stroke:#000000;fill:none;stroke-width:0.90000000000000002;stroke-opacity:1"
       points="10.62, 0 33.75, 0 33.75, 10.62 67.5, 10.62 67.5, 0 94.5, 0 94.5, 10.62 121.5, 10.62 121.5, 0 148.5, 0 148.5, 10.62 175.5, 10.62 175.5, 0 202.5, 0 202.5, 10.62 236.25, 10.62 236.25, 0 259.38, 0 259.38, 33.75 270, 33.75 270, 67.5 259.38, 67.5 259.38, 94.5 270, 94.5 270, 121.5 259.38, 121.5 259.38, 148.5 270, 148.5 270, 175.5 259.38, 175.5 259.38, 202.5 270, 202.5 270, 236.25 259.38, 236.25 259.38, 270 236.25, 270 236.25, 259.38 202.5, 259.38 202.5, 270 175.5, 270 175.5, 259.38 148.5, 259.38 148.5, 270 121.5, 270 121.5, 259.38 94.5, 259.38 94.5, 270 67.5, 270 67.5, 259.38 33.75, 259.38 33.75, 270 10.62, 270 10.62, 236.25 0, 236.25 0, 202.5 10.62, 202.5 10.62, 175.5 0, 175.5 0, 148.5 10.62, 148.5 10.62, 121.5 0, 121.5 0, 94.5 10.62, 94.5 10.62, 67.5 0, 67.5 0, 33.75 10.62, 33.75 "
       id="polygon18" />
  </g>
  <!-- Top-->
  <g
     transform="translate(22.5, 292.5) "
     id="g20"
     style="fill:none;stroke:#000000;stroke-opacity:1">
    <polygon
       style="stroke:#000000;fill:none;stroke-width:0.90000000000000002;stroke-opacity:1"
       points="10.62, 10.62 33.75, 10.62 33.75, 0 67.5, 0 67.5, 10.62 94.5, 10.62 94.5, 0 121.5, 0 121.5, 10.62 148.5, 10.62 148.5, 0 175.5, 0 175.5, 10.62 202.5, 10.62 202.5, 0 236.25, 0 236.25, 10.62 259.38, 10.62 259.38, 33.75 270, 33.75 270, 67.5 259.38, 67.5 259.38, 94.5 270, 94.5 270, 121.5 259.38, 121.5 259.38, 148.5 270, 148.5 270, 175.5 259.38, 175.5 259.38, 202.5 270, 202.5 270, 236.25 259.38, 236.25 259.38, 259.38 236.25, 259.38 236.25, 270 202.5, 270 202.5, 259.38 175.5, 259.38 175.5, 270 148.5, 270 148.5, 259.38 121.5, 259.38 121.5, 270 94.5, 270 94.5, 259.38 67.5, 259.38 67.5, 270 33.75, 270 33.75, 259.38 10.62, 259.38 10.62, 236.25 0, 236.25 0, 202.5 10.62, 202.5 10.62, 175.5 0, 175.5 0, 148.5 10.62, 148.5 10.62, 121.5 0, 121.5 0, 94.5 10.62, 94.5 10.62, 67.5 0, 67.5 0, 33.75 10.62, 33.75 "
       id="polygon22" />
  </g>
  <!-- Bottom-->
  <g
     transform="translate(292.5, 292.5) "
     id="g24"
     style="fill:none;stroke:#000000;stroke-opacity:1">
    <polygon
       style="stroke:#000000;fill:none;stroke-width:0.90000000000000002;stroke-opacity:1"
       points="10.62, 10.62 33.75, 10.62 33.75, 0 67.5, 0 67.5, 10.62 94.5, 10.62 94.5, 0 121.5, 0 121.5, 10.62 148.5, 10.62 148.5, 0 175.5, 0 175.5, 10.62 202.5, 10.62 202.5, 0 236.25, 0 236.25, 10.62 259.38, 10.62 259.38, 33.75 270, 33.75 270, 67.5 259.38, 67.5 259.38, 94.5 270, 94.5 270, 121.5 259.38, 121.5 259.38, 148.5 270, 148.5 270, 175.5 259.38, 175.5 259.38, 202.5 270, 202.5 270, 236.25 259.38, 236.25 259.38, 259.38 236.25, 259.38 236.25, 270 202.5, 270 202.5, 259.38 175.5, 259.38 175.5, 270 148.5, 270 148.5, 259.38 121.5, 259.38 121.5, 270 94.5, 270 94.5, 259.38 67.5, 259.38 67.5, 270 33.75, 270 33.75, 259.38 10.62, 259.38 10.62, 236.25 0, 236.25 0, 202.5 10.62, 202.5 10.62, 175.5 0, 175.5 0, 148.5 10.62, 148.5 10.62, 121.5 0, 121.5 0, 94.5 10.62, 94.5 10.62, 67.5 0, 67.5 0, 33.75 10.62, 33.75 "
       id="polygon26" />
  </g>
  <path
     style="fill:none;stroke:#000000;stroke-width:1px;stroke-linecap:butt;stroke-linejoin:miter;stroke-opacity:1"
     d="M 52.650789,58.492113 54.466333,165.60923 161.58346,56.676568 z"
     id="path3798"
     inkscape:connector-curvature="0" />
  <path
     style="fill:none;stroke:#000000;stroke-width:1px;stroke-linecap:butt;stroke-linejoin:miter;stroke-opacity:1"
     d="m 183.36999,58.492113 -65.3596,70.806237 68.99069,0 32.6798,-39.941982 z"
     id="path3800"
     inkscape:connector-curvature="0" />
  <path
     style="fill:none;stroke:#000000;stroke-width:1px;stroke-linecap:butt;stroke-linejoin:miter;stroke-opacity:1"
     d="m 225.12751,58.492113 23.60208,19.970989 -54.46634,68.990688 -52.65078,-1.81554 -30.86426,38.12643 118.01039,0 38.12643,-108.932667 1.81555,-19.970989 z"
     id="path3802"
     inkscape:connector-curvature="0" />
  <path
     style="fill:none;stroke:#000000;stroke-width:1px;stroke-linecap:butt;stroke-linejoin:miter;stroke-opacity:1"
     d="m 192.44771,205.55121 70.80623,-3.63109 -18.15544,54.46634 z"
     id="path3804"
     inkscape:connector-curvature="0" />
  <path
     style="fill:none;stroke:#000000;stroke-width:1px;stroke-linecap:butt;stroke-linejoin:miter;stroke-opacity:1"
     d="M 157.95237,205.55121 210.60315,258.202 130.7192,254.57091 103.48603,203.73567 z"
     id="path3806"
     inkscape:connector-curvature="0"
     sodipodi:nodetypes="ccccc" />
  <path
     style="fill:none;stroke:#000000;stroke-width:1px;stroke-linecap:butt;stroke-linejoin:miter;stroke-opacity:1"
     d="m 87.146133,156.53151 -30.864255,32.6798 1.815544,63.54406 45.388608,0 -25.417619,-56.28188 38.126429,-47.20416 z"
     id="path3808"
     inkscape:connector-curvature="0" />
  <path
     style="fill:none;stroke:#000000;stroke-width:1px;stroke-linecap:butt;stroke-linejoin:miter;stroke-opacity:1"
     d="m 324.98245,62.123202 0,107.117118 92.59277,-101.670485 z"
     id="path3810"
     inkscape:connector-curvature="0" />
  <path
     style="fill:none;stroke:#000000;stroke-width:1px;stroke-linecap:butt;stroke-linejoin:miter;stroke-opacity:1"
     d="m 446.62393,60.307657 79.88396,1.815545 -94.40831,128.903658 -39.94198,-16.3399 z"
     id="path3812"
     inkscape:connector-curvature="0" />
  <path
     style="fill:none;stroke:#000000;stroke-width:1px;stroke-linecap:butt;stroke-linejoin:miter;stroke-opacity:1"
     d="m 375.8177,143.8227 -49.0197,54.46633 -1.81555,56.28188 56.28188,-1.81554 z"
     id="path3814"
     inkscape:connector-curvature="0" />
  <path
     style="fill:none;stroke:#000000;stroke-width:1px;stroke-linecap:butt;stroke-linejoin:miter;stroke-opacity:1"
     d="m 401.23532,198.28903 96.22386,34.49535 -1.81555,23.60208 -85.33059,-1.81555 z"
     id="path3816"
     inkscape:connector-curvature="0" />
  <path
     style="fill:none;stroke:#000000;stroke-width:1px;stroke-linecap:butt;stroke-linejoin:miter;stroke-opacity:1"
     d="m 521.06125,122.03617 -58.09742,70.80623 59.91297,27.23317 z"
     id="path3818"
     inkscape:connector-curvature="0" />
  <path
     style="fill:none;stroke:#000000;stroke-width:1px;stroke-linecap:butt;stroke-linejoin:miter;stroke-opacity:1"
     d="m 590.05194,53.045479 94.40831,110.748211 49.0197,-67.175144 z"
     id="path3822"
     inkscape:connector-curvature="0" />
  <path
     style="fill:none;stroke:#000000;stroke-width:1px;stroke-linecap:butt;stroke-linejoin:miter;stroke-opacity:1"
     d="m 798.83955,67.569835 -125.27256,-9.077722 94.40831,36.310889 -63.54406,87.146128 88.96168,0 z"
     id="path3824"
     inkscape:connector-curvature="0" />
  <path
     style="fill:none;stroke:#000000;stroke-width:1px;stroke-linecap:butt;stroke-linejoin:miter;stroke-opacity:1"
     d="m 610.02293,123.85171 92.59277,83.51505 -79.88396,25.41762 z"
     id="path3826"
     inkscape:connector-curvature="0" />
  <path
     style="fill:none;stroke:#000000;stroke-width:1px;stroke-linecap:butt;stroke-linejoin:miter;stroke-opacity:1"
     d="m 720.77114,194.65795 12.70881,25.41762 -103.48603,38.12643 167.03009,0 -47.20416,-54.46633 36.31089,-7.26218 z"
     id="path3828"
     inkscape:connector-curvature="0" />
  <path
     style="fill:none;stroke:#000000;stroke-width:1px;stroke-linecap:butt;stroke-linejoin:miter;stroke-opacity:1"
     d="m 319.53582,339.9015 7.26218,165.21454 63.54405,-59.91296 z"
     id="path3830"
     inkscape:connector-curvature="0" />
  <path
     style="fill:none;stroke:#000000;stroke-width:1px;stroke-linecap:butt;stroke-linejoin:miter;stroke-opacity:1"
     d="m 348.58453,517.82486 92.59277,-99.85495 79.88395,16.3399 z"
     id="path3832"
     inkscape:connector-curvature="0" />
  <path
     style="fill:none;stroke:#000000;stroke-width:1px;stroke-linecap:butt;stroke-linejoin:miter;stroke-opacity:1"
     d="m 379.44879,525.08703 145.24355,-5.44663 5.44664,-65.3596 z"
     id="path3834"
     inkscape:connector-curvature="0" />
  <path
     style="fill:none;stroke:#000000;stroke-width:1px;stroke-linecap:butt;stroke-linejoin:miter;stroke-opacity:1"
     d="m 466.59492,330.82378 -18.15544,74.43732 70.80623,9.07772 12.70881,-79.88395 z"
     id="path3836"
     inkscape:connector-curvature="0" />
  <path
     style="fill:none;stroke:#000000;stroke-width:1px;stroke-linecap:butt;stroke-linejoin:miter;stroke-opacity:1"
     d="m 344.95344,325.37715 103.48604,0 -19.97099,76.25286 -23.60208,23.60208 z"
     id="path3838"
     inkscape:connector-curvature="0" />
  <path
     style="fill:none;stroke:#000000;stroke-width:1px;stroke-linecap:butt;stroke-linejoin:miter;stroke-opacity:1"
     d="m 586.42085,325.37715 103.48604,-3.63109 -3.63109,159.76791 z"
     id="path3840"
     inkscape:connector-curvature="0" />
  <path
     style="fill:none;stroke:#000000;stroke-width:1px;stroke-linecap:butt;stroke-linejoin:miter;stroke-opacity:1"
     d="m 599.12966,514.19377 -7.26217,-103.48604 49.0197,108.93267 z"
     id="path3842"
     inkscape:connector-curvature="0" />
  <path
     style="fill:none;stroke:#000000;stroke-width:1px;stroke-linecap:butt;stroke-linejoin:miter;stroke-opacity:1"
     d="m 708.06233,516.00931 -79.88395,-83.51504 32.6798,94.40831 z"
     id="path3844"
     inkscape:connector-curvature="0" />
  <path
     style="fill:none;stroke:#000000;stroke-width:1px;stroke-linecap:butt;stroke-linejoin:miter;stroke-opacity:1"
     d="m 709.87788,350.79477 94.40831,1.81554 -5.44664,68.99069 z"
     id="path3846"
     inkscape:connector-curvature="0" />
  <path
     style="fill:none;stroke:#000000;stroke-width:1px;stroke-linecap:butt;stroke-linejoin:miter;stroke-opacity:1"
     d="m 797.02401,452.46526 -81.6995,-74.43733 0,92.59277 z"
     id="path3848"
     inkscape:connector-curvature="0" />
  <path
     style="fill:none;stroke:#000000;stroke-width:1px;stroke-linecap:butt;stroke-linejoin:miter;stroke-opacity:1"
     d="m 804.28619,486.9606 0,41.75752 -67.17515,-1.81554 -19.97099,-41.75752 z"
     id="path3850"
     inkscape:connector-curvature="0" />
  <path
     style="fill:none;stroke:#000000;stroke-width:1px;stroke-linecap:butt;stroke-linejoin:miter;stroke-opacity:1"
     d="m 711.69342,323.5616 3.63109,12.70881 85.33059,1.81555 -3.63109,-18.15545 z"
     id="path3852"
     inkscape:connector-curvature="0" />
  <path
     style="fill:none;stroke:#000000;stroke-width:1;stroke-miterlimit:4;stroke-opacity:1;stroke-dasharray:none"
     d="m 212.21875,506.9375 c 0,21.84375 0,43.6875 0,65.53125 19.48958,0 38.97917,0 58.46875,0 0,-22.51042 0,-45.02083 0,-67.53125 -19.48958,0 -38.97917,0 -58.46875,0 l 0,1 0,1 z"
     id="rect3891"
     inkscape:connector-curvature="0" />
  <flowRoot
     xml:space="preserve"
     id="flowRoot3895"
     style="font-size:40px;font-style:normal;font-weight:bold;line-height:125%;letter-spacing:0px;word-spacing:0px;fill:none;stroke:#000000;stroke-opacity:1;font-family:Sans;-inkscape-font-specification:Sans Bold"
     transform="matrix(0.8980076,0,0,0.8980076,11.890452,18.458388)"><flowRegion
       id="flowRegion3897"><rect
         id="rect3899"
         width="244.032"
         height="257.80728"
         x="54.466331"
         y="350.79477"
         style="font-weight:bold;fill:none;stroke:#000000;stroke-opacity:1;-inkscape-font-specification:Sans Bold" /></flowRegion><flowPara
       id="flowPara3901"
       style="font-size:53.45166397px;font-weight:bold;fill:none;stroke:#000000;stroke-opacity:1;-inkscape-font-specification:Sans Bold">Jenna is awe-some</flowPara></flowRoot></svg>
